<svg width="76" height="76" viewBox="0 0 76 76" fill="none" xmlns="http://www.w3.org/2000/svg">
<g filter="url(#filter0_d_8902_3514)">
<rect x="7" y="7" width="60" height="60" rx="30" fill="#F8F8F8"/>
<g clip-path="url(#clip0_8902_3514)">
<path d="M25.9789 23.0396C25.6973 23.0829 25.1285 23.2888 24.8144 23.4513C24.3864 23.6788 23.6769 24.3883 23.4494 24.8163C23.3573 24.995 23.2219 25.3092 23.1514 25.5204L23.0269 25.8996V30.4767C23.0269 35.4329 23.0214 35.2975 23.3248 35.98C23.7202 36.8575 24.6302 37.67 25.4752 37.8921L25.7027 37.9517L25.7189 39.0783C25.7352 40.3296 25.7677 40.4433 26.1035 40.6546C26.3202 40.79 26.6777 40.8062 26.8889 40.6925C26.9702 40.6492 27.6094 40.0371 28.3081 39.3383L29.581 38.06H29.8302H30.0848L30.1119 36.7979C30.1335 35.7092 30.1498 35.4871 30.2527 35.1404C30.7781 33.3583 32.0998 32.0367 33.8873 31.495C34.2881 31.3758 34.326 31.3758 38.1556 31.3542L42.0123 31.3379V28.7C42.0123 25.8075 42.0014 25.6883 41.6819 25.0221C41.346 24.3179 40.7664 23.7383 40.0352 23.3754C39.2498 22.9854 39.5748 23.0017 32.4789 23.0125C28.9798 23.0125 26.0548 23.0288 25.9789 23.0396Z" fill="black"/>
<path d="M34.3314 33.0772C33.1072 33.3967 32.1431 34.3772 31.8235 35.6121C31.726 35.9967 31.7206 36.2459 31.7206 40.4438C31.7206 43.3309 31.7422 44.9776 31.7802 45.1888C31.8072 45.3621 31.9481 45.7413 32.0835 46.023C32.506 46.895 33.2643 47.545 34.2393 47.8755L34.6185 48L39.3852 48.0163L44.1518 48.0325L45.4789 49.3488C46.8927 50.7571 46.9522 50.8005 47.3693 50.7084C47.5589 50.6705 47.8297 50.4592 47.9327 50.2805C47.976 50.2046 48.0085 49.7821 48.0247 49.0346L48.0518 47.9025L48.2685 47.8375C48.6314 47.7292 49.1352 47.4475 49.4818 47.1605C50.0939 46.6513 50.5597 45.8117 50.6789 45.0155C50.7114 44.7934 50.7331 42.9138 50.7331 40.3896C50.7331 35.6338 50.7385 35.7096 50.3593 34.9459C49.9964 34.2147 49.4168 33.6351 48.7127 33.2992C47.9977 32.958 48.3064 32.9688 41.1997 32.9742C35.0031 32.9742 34.7106 32.9797 34.3314 33.0772Z" fill="black"/>
<path d="M41.6363 41.1736C41.5906 41.1829 41.5496 41.2077 41.5201 41.2438C41.4906 41.2799 41.4745 41.3251 41.4745 41.3717V41.8067C41.4745 41.8872 41.4426 41.9643 41.3857 42.0212C41.3288 42.0781 41.2516 42.11 41.1712 42.11C41.0907 42.11 41.0136 42.0781 40.9567 42.0212C40.8998 41.9643 40.8679 41.8872 40.8679 41.8067V40.9327C40.8679 40.856 40.897 40.7821 40.9493 40.7259C41.0017 40.6698 41.0734 40.6356 41.1499 40.6302C41.5095 40.6051 42.0383 40.4826 42.4674 40.209C42.8862 39.9416 43.1934 39.5447 43.1934 38.9443C43.1934 38.3659 42.9788 37.9649 42.6672 37.699C42.3481 37.4266 41.904 37.2774 41.4272 37.2588C40.4402 37.2202 39.5203 37.7259 39.3439 38.5134C39.3264 38.5919 39.2783 38.6602 39.2104 38.7033C39.1424 38.7464 39.0602 38.7607 38.9816 38.7432C38.9031 38.7256 38.8348 38.6776 38.7917 38.6096C38.7486 38.5417 38.7343 38.4594 38.7518 38.3809C38.8865 37.7795 39.275 37.3393 39.7779 37.0511C40.2834 36.7613 40.8964 36.6309 41.4511 36.6527C42.031 36.6754 42.6158 36.8576 43.0611 37.2376C43.5141 37.6242 43.8 38.1969 43.8 38.9443C43.8 39.8013 43.341 40.3712 42.7938 40.7204C42.4233 40.9568 42.0049 41.0987 41.6363 41.1736ZM40.6656 43.6267C40.6656 43.4658 40.7295 43.3115 40.8433 43.1977C40.9571 43.0839 41.1114 43.02 41.2723 43.02C41.4332 43.02 41.5875 43.0839 41.7013 43.1977C41.815 43.3115 41.8789 43.4658 41.8789 43.6267C41.8789 43.7876 41.815 43.9419 41.7013 44.0557C41.5875 44.1694 41.4332 44.2333 41.2723 44.2333C41.1114 44.2333 40.9571 44.1694 40.8433 44.0557C40.7295 43.9419 40.6656 43.7876 40.6656 43.6267Z" fill="#F8F8F8" stroke="#F8F8F8" stroke-width="0.404439" stroke-linecap="round" stroke-linejoin="round"/>
</g>
</g>
<defs>
<filter id="filter0_d_8902_3514" x="0" y="0" width="76" height="76" filterUnits="userSpaceOnUse" color-interpolation-filters="sRGB">
<feFlood flood-opacity="0" result="BackgroundImageFix"/>
<feColorMatrix in="SourceAlpha" type="matrix" values="0 0 0 0 0 0 0 0 0 0 0 0 0 0 0 0 0 0 127 0" result="hardAlpha"/>
<feOffset dx="1" dy="1"/>
<feGaussianBlur stdDeviation="4"/>
<feComposite in2="hardAlpha" operator="out"/>
<feColorMatrix type="matrix" values="0 0 0 0 0 0 0 0 0 0 0 0 0 0 0 0 0 0 0.5 0"/>
<feBlend mode="normal" in2="BackgroundImageFix" result="effect1_dropShadow_8902_3514"/>
<feBlend mode="normal" in="SourceGraphic" in2="effect1_dropShadow_8902_3514" result="shape"/>
</filter>
<clipPath id="clip0_8902_3514">
<rect width="27.7333" height="27.7333" fill="white" transform="translate(23 23)"/>
</clipPath>
</defs>
</svg>
