<svg width="21" height="12" viewBox="0 0 21 12" fill="none" xmlns="http://www.w3.org/2000/svg">
<path d="M18.5734 1.03341C18.6689 0.943191 18.7812 0.872661 18.9039 0.825845C19.0267 0.77903 19.1574 0.756845 19.2887 0.76056C19.42 0.764274 19.5493 0.793814 19.6692 0.847493C19.7891 0.901172 19.8972 0.977938 19.9874 1.07341C20.0777 1.16888 20.1482 1.28119 20.195 1.40392C20.2418 1.52664 20.264 1.65739 20.2603 1.78869C20.2566 1.92 20.227 2.04928 20.1733 2.16917C20.1197 2.28905 20.0429 2.39719 19.9474 2.48741L10.9474 10.9874C10.7618 11.1629 10.5159 11.2608 10.2604 11.2608C10.0049 11.2608 9.7591 11.1629 9.57343 10.9874L0.572432 2.48741C0.474871 2.39779 0.396088 2.28967 0.340664 2.16934C0.28524 2.04902 0.254276 1.91888 0.249573 1.78648C0.244869 1.65409 0.26652 1.52208 0.313265 1.39812C0.36001 1.27417 0.43092 1.16073 0.521873 1.06441C0.612827 0.968091 0.722015 0.890803 0.843092 0.837037C0.964169 0.783271 1.09472 0.754098 1.22717 0.751214C1.35962 0.748329 1.49132 0.77179 1.61462 0.820234C1.73792 0.868678 1.85037 0.941139 1.94543 1.03341L10.2604 8.88541L18.5734 1.03341Z" fill="#333333"/>
</svg>
