<svg width="48" height="48" viewBox="0 0 48 48" fill="none" xmlns="http://www.w3.org/2000/svg">
<rect width="48" height="48" rx="24" fill="#F8F8F8"/>
<g clip-path="url(#clip0_8973_20991)">
<path d="M23.6604 11.2786C23.4754 11.3736 23.3904 11.4936 22.8254 12.4236C22.6104 12.7786 22.4054 13.1086 22.3704 13.1436C22.3304 13.1836 21.8654 13.3236 21.3254 13.4536C20.7904 13.5786 20.2954 13.7236 20.2254 13.7686C20.0254 13.8986 19.9004 14.1436 19.9004 14.4036C19.9004 14.6736 19.9354 14.7236 20.7454 15.6736C21.3854 16.4286 21.3454 16.2586 21.2304 17.5986C21.1604 18.4336 21.1804 18.6386 21.3654 18.8436C21.4954 18.9836 21.7454 19.0986 21.9304 19.0986C22.0004 19.0986 22.4954 18.9186 23.0304 18.6986L24.0004 18.2986L24.9704 18.6986C25.5054 18.9186 26.0004 19.0986 26.0704 19.0986C26.2554 19.0986 26.5054 18.9836 26.6354 18.8436C26.8204 18.6386 26.8404 18.4336 26.7704 17.5986C26.6554 16.2586 26.6154 16.4286 27.2554 15.6736C28.0654 14.7236 28.1004 14.6736 28.1004 14.4036C28.1004 14.1436 27.9754 13.8986 27.7754 13.7686C27.7004 13.7186 27.2104 13.5786 26.6854 13.4536C26.1554 13.3236 25.7004 13.2086 25.6704 13.1886C25.6454 13.1686 25.3854 12.7686 25.0954 12.2986C24.8104 11.8186 24.5104 11.3936 24.4304 11.3336C24.2404 11.1986 23.8704 11.1686 23.6604 11.2786Z" fill="#0F0F0F"/>
<path d="M14.9752 14.2388C14.7602 14.3738 14.7152 14.4338 14.1752 15.3238C13.9052 15.7638 13.6802 16.1338 13.6702 16.1388C13.6652 16.1488 13.1952 16.2688 12.6302 16.4088C12.0202 16.5538 11.5552 16.6938 11.4852 16.7488C11.3252 16.8738 11.2002 17.1438 11.2002 17.3588C11.2002 17.5838 11.3102 17.7488 11.9652 18.5188C12.2752 18.8788 12.5502 19.2088 12.5852 19.2488C12.6302 19.3088 12.6252 19.5188 12.5702 20.1488C12.4752 21.3238 12.4752 21.4988 12.6102 21.6988C12.7702 21.9288 13.0252 22.0588 13.2752 22.0338C13.3852 22.0188 13.8902 21.8388 14.4002 21.6288L15.3252 21.2438L16.2852 21.6488C16.8152 21.8688 17.3102 22.0488 17.3852 22.0488C17.6402 22.0488 17.9352 21.8588 18.0502 21.6238C18.1552 21.4088 18.1552 21.4088 18.0702 20.3588L17.9902 19.3088L18.6302 18.5488C18.9852 18.1338 19.3052 17.7338 19.3452 17.6588C19.4502 17.4588 19.4352 17.1188 19.3202 16.9638C19.1252 16.7038 18.9652 16.6388 17.9752 16.3988C17.4352 16.2688 16.9802 16.1438 16.9602 16.1238C16.9402 16.1088 16.6902 15.7088 16.4002 15.2388C16.1102 14.7688 15.8152 14.3388 15.7402 14.2838C15.5502 14.1388 15.1652 14.1188 14.9752 14.2388Z" fill="#0F0F0F"/>
<path d="M32.3706 14.2188C32.1756 14.3038 32.0806 14.4338 31.5056 15.3838C31.0806 16.0838 31.0256 16.1488 30.8606 16.1938C30.7556 16.2238 30.3056 16.3338 29.8556 16.4438C29.0356 16.6388 28.8706 16.7138 28.6806 16.9638C28.5656 17.1188 28.5506 17.4588 28.6556 17.6588C28.6956 17.7338 29.0156 18.1338 29.3706 18.5488L30.0106 19.3088L29.9256 20.3538L29.8406 21.3988L29.9506 21.6238C30.0656 21.8638 30.3606 22.0488 30.6206 22.0488C30.6956 22.0488 31.1906 21.8688 31.7206 21.6488L32.6856 21.2438L33.6056 21.6288C34.1106 21.8388 34.6156 22.0188 34.7256 22.0338C34.9756 22.0588 35.2306 21.9288 35.3906 21.6988C35.5256 21.4988 35.5256 21.3238 35.4306 20.1488C35.3756 19.5188 35.3706 19.3088 35.4156 19.2488C35.4506 19.2088 35.7406 18.8638 36.0656 18.4838C36.3856 18.1038 36.6906 17.7188 36.7306 17.6388C36.9056 17.2988 36.6906 16.7688 36.3256 16.6488C36.2306 16.6188 35.7456 16.4938 35.2506 16.3738C34.7506 16.2538 34.3356 16.1488 34.3306 16.1388C34.3206 16.1288 34.0956 15.7638 33.8256 15.3238C33.5606 14.8838 33.2906 14.4688 33.2306 14.4088C33.0006 14.1538 32.6806 14.0838 32.3706 14.2188Z" fill="#0F0F0F"/>
<path d="M24.2418 21.8739C23.7537 22.0022 23.5878 22.3996 23.5377 23.5825C23.5158 24.0238 23.4908 24.2866 23.4438 24.4744C23.3594 24.8217 23.0965 25.3537 22.8274 25.7105C22.4518 26.2112 21.7133 26.8934 21.1375 27.2752L21.0029 27.3628V31.4998V35.6399L21.3503 35.787C22.2766 36.1782 23.4814 36.4942 24.7425 36.6757C25.672 36.8103 26.2728 36.8447 27.6842 36.8478C28.9922 36.851 29.0361 36.8478 29.2739 36.779C30.1971 36.513 30.873 35.8684 31.139 35.0047C31.1765 34.8857 31.3862 33.7654 31.6053 32.5168C31.9839 30.3419 31.9996 30.2293 31.9996 29.8256C31.9964 29.4594 31.9839 29.3656 31.912 29.1215C31.6679 28.3141 31.1014 27.6851 30.341 27.3815C29.8998 27.2032 29.7996 27.1969 27.9189 27.1969H26.204L26.3135 26.8902C26.567 26.1799 26.6796 25.4883 26.6796 24.6308C26.6796 23.9674 26.6452 23.7452 26.4887 23.3541C26.351 23.0067 26.2008 22.7814 25.9192 22.5029C25.6407 22.2244 25.3809 22.0616 25.0179 21.9365C24.8208 21.8676 24.392 21.8332 24.2418 21.8739Z" fill="#0F0F0F"/>
<path d="M16.8069 26.7456C16.4658 26.8489 16.1654 27.1556 16.059 27.5092C15.9964 27.7095 15.9964 27.7908 16.0026 31.7651L16.012 35.8176L16.1153 36.0273C16.2405 36.2839 16.4877 36.5186 16.7412 36.6219C16.9164 36.6938 16.9415 36.6938 17.9992 36.6938C19.0569 36.6938 19.082 36.6938 19.2572 36.6219C19.5107 36.5186 19.7579 36.2839 19.8831 36.0273L19.9863 35.8176L19.9957 31.7651C20.002 27.7908 20.002 27.7095 19.9394 27.5092C19.8299 27.1462 19.5326 26.8489 19.179 26.7425C18.9537 26.6768 17.0228 26.6768 16.8069 26.7456Z" fill="#0F0F0F"/>
</g>
<defs>
<clipPath id="clip0_8973_20991">
<rect width="25.6" height="25.6" fill="white" transform="translate(11.2002 11.2002)"/>
</clipPath>
</defs>
</svg>
