<svg width="70" height="76" viewBox="0 0 70 76" fill="none" xmlns="http://www.w3.org/2000/svg">
<g clip-path="url(#clip0_1_2310)">
<path opacity="0.975" fill-rule="evenodd" clip-rule="evenodd" d="M57.6074 0.951172C58.2259 0.951172 58.8444 0.951172 59.4629 0.951172C59.6257 1.11393 59.7884 1.27669 59.9512 1.43945C59.9512 2.05794 59.9512 2.67644 59.9512 3.29492C59.2861 9.473 57.4145 15.2673 54.3359 20.6777C52.6136 23.5078 50.4651 25.9818 47.8906 28.0996C48.2708 29.0119 48.5964 29.956 48.8672 30.9316C49.2832 33.7613 48.4205 36.1213 46.2793 38.0117C43.4339 40.4034 40.1462 41.5753 36.416 41.5273C35.7945 41.1035 35.6806 40.5664 36.0742 39.916C37.669 38.3531 38.1572 36.5302 37.5391 34.4473C36.0363 35.1001 34.49 35.6372 32.9004 36.0586C32.3107 36.1046 31.7248 36.1046 31.1426 36.0586C29.8084 38.6653 27.6926 40.2604 24.7949 40.8438C23.1651 41.3162 21.505 41.544 19.8145 41.5273C19.384 41.2579 19.2212 40.8673 19.3262 40.3555C19.4914 38.2923 19.9309 36.2903 20.6445 34.3496C21.4323 32.2597 22.8321 30.7298 24.8438 29.7598C24.7978 29.1775 24.7978 28.5916 24.8438 28.002C25.2651 26.4123 25.8022 24.866 26.4551 23.3633C24.372 22.7427 22.5491 23.231 20.9863 24.8281C20.3359 25.2218 19.7988 25.1078 19.375 24.4863C19.3269 20.7565 20.4987 17.4688 22.8906 14.623C24.7811 12.4818 27.141 11.6191 29.9707 12.0352C30.9464 12.306 31.8904 12.6315 32.8027 13.0117C36.5283 8.62392 41.1182 5.46637 46.5723 3.53906C50.1661 2.25792 53.8445 1.39529 57.6074 0.951172Z" fill="#010100"/>
<path fill-rule="evenodd" clip-rule="evenodd" d="M57.0215 3.00195C57.3145 3.00195 57.6074 3.00195 57.9004 3.00195C57.6386 5.90638 57.0526 8.73841 56.1426 11.498C53.864 9.2845 51.6179 7.03841 49.4043 4.75977C50.1682 4.46721 50.9494 4.22307 51.748 4.02734C53.5066 3.61369 55.2645 3.27189 57.0215 3.00195Z" fill="#FB5048"/>
<path fill-rule="evenodd" clip-rule="evenodd" d="M47.0605 5.44317C47.1633 5.42857 47.2609 5.44485 47.3535 5.49199C50.0391 8.17754 52.7246 10.8631 55.4101 13.5486C53.2893 19.772 49.5296 24.7687 44.1309 28.5389C42.2738 29.8261 40.3207 30.9653 38.2715 31.9568C38.1413 32.022 38.011 32.022 37.8809 31.9568C34.9023 28.9783 31.9238 25.9998 28.9453 23.0213C28.8802 22.8911 28.8802 22.7608 28.9453 22.6307C31.2687 17.736 34.5077 13.553 38.6621 10.0818C41.2445 8.15559 44.0439 6.60936 47.0605 5.44317Z" fill="#FDFDFD"/>
<path fill-rule="evenodd" clip-rule="evenodd" d="M44.0332 10.9121C47.0043 10.5817 48.9737 11.8186 49.9414 14.623C50.3158 17.3423 49.2579 19.2466 46.7676 20.3359C44.6291 20.9937 42.8225 20.4892 41.3476 18.8223C40.1067 16.9606 40.0091 15.04 41.0547 13.0605C41.8194 12.0178 42.8123 11.3017 44.0332 10.9121Z" fill="#030303"/>
<path fill-rule="evenodd" clip-rule="evenodd" d="M44.7168 12.7676C47.1666 12.8889 48.2571 14.1584 47.9883 16.5762C47.3054 18.1958 46.0847 18.8631 44.3262 18.5781C42.4846 17.7426 41.8824 16.3592 42.5195 14.4277C43.0464 13.5903 43.7788 13.037 44.7168 12.7676Z" fill="#79D5E5"/>
<path fill-rule="evenodd" clip-rule="evenodd" d="M27.5293 13.9394C28.9422 13.7259 30.2443 14.0025 31.4355 14.7694C29.9094 16.8602 28.5422 19.0574 27.334 21.3612C25.3885 20.7317 23.5005 20.8945 21.6699 21.8495C22.083 19.0869 23.3525 16.792 25.4785 14.9648C26.1177 14.5149 26.8013 14.1732 27.5293 13.9394Z" fill="#FC5148"/>
<path fill-rule="evenodd" clip-rule="evenodd" d="M39.2481 20.287C40.3491 20.2137 40.7561 20.702 40.4688 21.7518C39.9277 22.4556 39.293 23.0578 38.5645 23.5584C37.5903 23.6582 37.1834 23.2188 37.3438 22.2401C37.9328 21.5371 38.5676 20.8862 39.2481 20.287Z" fill="#0A0A0A"/>
<path fill-rule="evenodd" clip-rule="evenodd" d="M35.0488 24.4865C36.1387 24.323 36.5781 24.7787 36.3672 25.8537C36.0451 26.3146 35.6057 26.4611 35.0488 26.2931C34.3994 25.6791 34.3994 25.0769 35.0488 24.4865Z" fill="#050505"/>
<path fill-rule="evenodd" clip-rule="evenodd" d="M27.9199 24.877C30.68 27.4741 33.3817 30.1435 36.0254 32.8848C34.8468 33.3666 33.6424 33.7735 32.4121 34.1055C32.0915 34.178 31.7985 34.1129 31.5332 33.9102C30.0195 32.3965 28.5059 30.8828 26.9922 29.3691C26.7799 29.0717 26.7148 28.7461 26.7969 28.3926C27.1233 27.2018 27.4977 26.0299 27.9199 24.877Z" fill="#FB5148"/>
<path opacity="0.927" fill-rule="evenodd" clip-rule="evenodd" d="M18.6426 27.123C19.7932 27.1447 20.1675 27.6981 19.7656 28.7832C18.7728 29.7761 17.78 30.7688 16.7871 31.7617C15.882 32.1556 15.3286 31.8788 15.127 30.9316C15.1526 30.6848 15.234 30.4569 15.3711 30.248C16.4218 29.1481 17.5123 28.1064 18.6426 27.123Z" fill="#2A2A2A"/>
<path fill-rule="evenodd" clip-rule="evenodd" d="M46.084 29.4668C46.9127 30.6352 47.1894 31.9373 46.9141 33.373C46.5649 34.576 45.9302 35.6014 45.0098 36.4492C43.2854 37.9627 41.2998 38.8904 39.0527 39.2324C39.7978 37.6845 40.0745 36.0569 39.8828 34.3496C39.7979 34.0732 39.684 33.8128 39.541 33.5684C41.8434 32.3697 44.0244 31.0025 46.084 29.4668Z" fill="#FC5148"/>
<path fill-rule="evenodd" clip-rule="evenodd" d="M25.9668 31.4201C26.1009 31.4048 26.2312 31.4211 26.3574 31.469C27.3828 32.4943 28.4082 33.5197 29.4336 34.5451C28.9829 36.2671 27.9249 37.4878 26.2598 38.2072C24.7154 38.813 23.1204 39.2199 21.4746 39.4279C21.6625 37.472 22.1996 35.6165 23.0859 33.8615C23.8545 32.8158 24.8148 32.0021 25.9668 31.4201Z" fill="#FCDB77"/>
<path opacity="0.934" fill-rule="evenodd" clip-rule="evenodd" d="M9.95117 42.162C9.95117 41.8365 9.95117 41.511 9.95117 41.1855C12.3078 38.8777 14.6516 36.5502 16.9824 34.2031C17.6199 33.9212 18.1245 34.0677 18.4961 34.6425C18.6011 35.0681 18.5359 35.4587 18.3008 35.8144C16.071 38.0442 13.8411 40.274 11.6113 42.5038C10.9528 42.8642 10.3994 42.7502 9.95117 42.162Z" fill="#2A2A2A"/>
<path opacity="0.928" fill-rule="evenodd" clip-rule="evenodd" d="M32.3144 40.9902C33.5811 40.9204 33.9879 41.4738 33.5352 42.6504C32.5749 43.6107 31.6145 44.571 30.6543 45.5313C30.0039 45.9249 29.4668 45.8109 29.043 45.1895C28.9612 44.8189 28.9937 44.4608 29.1406 44.1152C30.1883 43.0512 31.2463 42.0095 32.3144 40.9902Z" fill="#2A2A2A"/>
<path opacity="0.934" fill-rule="evenodd" clip-rule="evenodd" d="M11.9043 50.951C11.5788 50.951 11.2533 50.951 10.9277 50.951C10.3395 50.5028 10.2256 49.9495 10.5859 49.2909C12.8158 47.0611 15.0456 44.8312 17.2754 42.6014C17.851 42.2422 18.3881 42.2911 18.8867 42.7479C19.0735 43.1413 19.0735 43.532 18.8867 43.9198C16.5396 46.2506 14.2121 48.5944 11.9043 50.951Z" fill="#2A2A2A"/>
<path opacity="0.934" fill-rule="evenodd" clip-rule="evenodd" d="M19.7168 50.951C19.3913 50.951 19.0658 50.951 18.7402 50.951C18.152 50.5028 18.0381 49.9495 18.3984 49.2909C20.6282 47.0611 22.8581 44.8312 25.0879 42.6014C25.6635 42.2422 26.2006 42.2911 26.6992 42.7479C26.886 43.1413 26.886 43.532 26.6992 43.9198C24.3521 46.2506 22.0246 48.5944 19.7168 50.951Z" fill="#2A2A2A"/>
</g>
<path d="M5.472 71.126C4.632 71.126 3.876 70.982 3.204 70.694C2.532 70.394 2.004 69.974 1.62 69.434C1.236 68.894 1.044 68.264 1.044 67.544H3.24C3.288 68.084 3.498 68.528 3.87 68.876C4.254 69.224 4.788 69.398 5.472 69.398C6.18 69.398 6.732 69.23 7.128 68.894C7.524 68.546 7.722 68.102 7.722 67.562C7.722 67.142 7.596 66.8 7.344 66.536C7.104 66.272 6.798 66.068 6.426 65.924C6.066 65.78 5.562 65.624 4.914 65.456C4.098 65.24 3.432 65.024 2.916 64.808C2.412 64.58 1.98 64.232 1.62 63.764C1.26 63.296 1.08 62.672 1.08 61.892C1.08 61.172 1.26 60.542 1.62 60.002C1.98 59.462 2.484 59.048 3.132 58.76C3.78 58.472 4.53 58.328 5.382 58.328C6.594 58.328 7.584 58.634 8.352 59.246C9.132 59.846 9.564 60.674 9.648 61.73H7.38C7.344 61.274 7.128 60.884 6.732 60.56C6.336 60.236 5.814 60.074 5.166 60.074C4.578 60.074 4.098 60.224 3.726 60.524C3.354 60.824 3.168 61.256 3.168 61.82C3.168 62.204 3.282 62.522 3.51 62.774C3.75 63.014 4.05 63.206 4.41 63.35C4.77 63.494 5.262 63.65 5.886 63.818C6.714 64.046 7.386 64.274 7.902 64.502C8.43 64.73 8.874 65.084 9.234 65.564C9.606 66.032 9.792 66.662 9.792 67.454C9.792 68.09 9.618 68.69 9.27 69.254C8.934 69.818 8.436 70.274 7.776 70.622C7.128 70.958 6.36 71.126 5.472 71.126ZM14.6073 62.756V68.246C14.6073 68.618 14.6913 68.888 14.8593 69.056C15.0393 69.212 15.3393 69.29 15.7593 69.29H17.0193V71H15.3993C14.4753 71 13.7673 70.784 13.2753 70.352C12.7833 69.92 12.5373 69.218 12.5373 68.246V62.756H11.3673V61.082H12.5373V58.616H14.6073V61.082H17.0193V62.756H14.6073ZM18.2265 65.996C18.2265 65 18.4305 64.118 18.8385 63.35C19.2585 62.582 19.8225 61.988 20.5305 61.568C21.2505 61.136 22.0425 60.92 22.9065 60.92C23.6865 60.92 24.3645 61.076 24.9405 61.388C25.5285 61.688 25.9965 62.066 26.3445 62.522V61.082H28.4145V71H26.3445V69.524C25.9965 69.992 25.5225 70.382 24.9225 70.694C24.3225 71.006 23.6385 71.162 22.8705 71.162C22.0185 71.162 21.2385 70.946 20.5305 70.514C19.8225 70.07 19.2585 69.458 18.8385 68.678C18.4305 67.886 18.2265 66.992 18.2265 65.996ZM26.3445 66.032C26.3445 65.348 26.2005 64.754 25.9125 64.25C25.6365 63.746 25.2705 63.362 24.8145 63.098C24.3585 62.834 23.8665 62.702 23.3385 62.702C22.8105 62.702 22.3185 62.834 21.8625 63.098C21.4065 63.35 21.0345 63.728 20.7465 64.232C20.4705 64.724 20.3325 65.312 20.3325 65.996C20.3325 66.68 20.4705 67.28 20.7465 67.796C21.0345 68.312 21.4065 68.708 21.8625 68.984C22.3305 69.248 22.8225 69.38 23.3385 69.38C23.8665 69.38 24.3585 69.248 24.8145 68.984C25.2705 68.72 25.6365 68.336 25.9125 67.832C26.2005 67.316 26.3445 66.716 26.3445 66.032ZM33.1618 62.522C33.4618 62.018 33.8578 61.628 34.3498 61.352C34.8538 61.064 35.4478 60.92 36.1318 60.92V63.044H35.6098C34.8058 63.044 34.1938 63.248 33.7738 63.656C33.3658 64.064 33.1618 64.772 33.1618 65.78V71H31.1098V61.082H33.1618V62.522ZM40.412 62.756V68.246C40.412 68.618 40.496 68.888 40.664 69.056C40.844 69.212 41.144 69.29 41.564 69.29H42.824V71H41.204C40.28 71 39.572 70.784 39.08 70.352C38.588 69.92 38.342 69.218 38.342 68.246V62.756H37.172V61.082H38.342V58.616H40.412V61.082H42.824V62.756H40.412ZM53.6972 61.082V71H51.6452V69.83C51.3212 70.238 50.8952 70.562 50.3672 70.802C49.8512 71.03 49.2992 71.144 48.7112 71.144C47.9312 71.144 47.2292 70.982 46.6052 70.658C45.9932 70.334 45.5072 69.854 45.1472 69.218C44.7992 68.582 44.6252 67.814 44.6252 66.914V61.082H46.6592V66.608C46.6592 67.496 46.8812 68.18 47.3252 68.66C47.7692 69.128 48.3752 69.362 49.1432 69.362C49.9112 69.362 50.5172 69.128 50.9612 68.66C51.4172 68.18 51.6452 67.496 51.6452 66.608V61.082H53.6972ZM58.4567 62.54C58.8047 62.084 59.2787 61.7 59.8787 61.388C60.4787 61.076 61.1567 60.92 61.9127 60.92C62.7767 60.92 63.5627 61.136 64.2707 61.568C64.9907 61.988 65.5547 62.582 65.9627 63.35C66.3707 64.118 66.5747 65 66.5747 65.996C66.5747 66.992 66.3707 67.886 65.9627 68.678C65.5547 69.458 64.9907 70.07 64.2707 70.514C63.5627 70.946 62.7767 71.162 61.9127 71.162C61.1567 71.162 60.4847 71.012 59.8967 70.712C59.3087 70.4 58.8287 70.016 58.4567 69.56V75.716H56.4047V61.082H58.4567V62.54ZM64.4867 65.996C64.4867 65.312 64.3427 64.724 64.0547 64.232C63.7787 63.728 63.4067 63.35 62.9387 63.098C62.4827 62.834 61.9907 62.702 61.4627 62.702C60.9467 62.702 60.4547 62.834 59.9867 63.098C59.5307 63.362 59.1587 63.746 58.8707 64.25C58.5947 64.754 58.4567 65.348 58.4567 66.032C58.4567 66.716 58.5947 67.316 58.8707 67.832C59.1587 68.336 59.5307 68.72 59.9867 68.984C60.4547 69.248 60.9467 69.38 61.4627 69.38C61.9907 69.38 62.4827 69.248 62.9387 68.984C63.4067 68.708 63.7787 68.312 64.0547 67.796C64.3427 67.28 64.4867 66.68 64.4867 65.996Z" fill="#171717"/>
<defs>
<clipPath id="clip0_1_2310">
<rect width="50" height="50" fill="white" transform="translate(10 1)"/>
</clipPath>
</defs>
</svg>
